<?xml version="1.0" encoding="utf-8"?>
<!-- Generator: Adobe Illustrator 28.1.0, SVG Export Plug-In . SVG Version: 6.00 Build 0)  -->
<svg version="1.1" id="Layer_1" xmlns="http://www.w3.org/2000/svg" xmlns:xlink="http://www.w3.org/1999/xlink" x="0px" y="0px"
	 viewBox="0 0 145.61 77.78" style="enable-background:new 0 0 145.61 77.78;" xml:space="preserve">
<style type="text/css">
	.st0{fill:#F6AA5E;}
	.st1{font-family:'Avenir-Roman';}
	.st2{font-size:27.2353px;}
	.st3{fill:none;stroke:url(#SVGID_1_);stroke-width:4;stroke-linecap:round;stroke-miterlimit:10;}
</style>
<text transform="matrix(0.9984 0 0 1 0 66.9386)" class="st0 st1 st2">beat stream</text>
<linearGradient id="SVGID_1_" gradientUnits="userSpaceOnUse" x1="1.0756" y1="23.0759" x2="144.7137" y2="23.0759">
	<stop  offset="0.2483" style="stop-color:#10535A"/>
	<stop  offset="1" style="stop-color:#AAD8DA"/>
</linearGradient>
<path class="st3" d="M3.08,43.37c20.18,1.68,16.8-20.48,18.74-37.53c0.61-5.34,6.8-5.01,7.19,0.35c0.66,9.01,1.34,18.59,2.08,26.89
	c1.4,15.57,8.01,13.33,8.75-0.01c0.52-9.33,0.4-14.1,0.77-16.69c0.64-4.4,5.81-4,6.26-0.55c0.52,4.03,0.47,2.09,0.97,17.23
	c0.48,14.8,9.9,14.07,9.77,0c-0.06-6.92-0.03-18.61-0.12-23.16c-0.1-5.2,6.85-5.14,7.12-0.73c0.35,5.77,0.48,7.32,0.84,23.88
	c0.32,14.72,8.86,14.19,8.45,0c-0.36-12.4-0.15-4.83-0.24-9.26c-0.12-6.16,6.15-6.89,6.52-0.12c0.17,3.14,0.14,3.95,0.36,9.38
	c0.61,15.03,12.64,13.61,12.45,0c-0.04-3.03,0.37-8.46,0.96-13.21c1.12-8.99,7.38-9.88,8.41-0.11c0.45,4.27,0.59,9.35,0.67,13.32
	c0.3,14.11,10.91,12.28,12.52,6.69c1.74-6.05,7.83-4.81,9.68,0.33c1.92,5.32,11.97,5.23,17.46,0.83"/>
</svg>
