<?xml version="1.0" encoding="utf-8"?>
<!-- Generator: Adobe Illustrator 28.1.0, SVG Export Plug-In . SVG Version: 6.00 Build 0)  -->
<svg version="1.1" id="Layer_1" xmlns="http://www.w3.org/2000/svg" xmlns:xlink="http://www.w3.org/1999/xlink" x="0px" y="0px"
	 viewBox="0 0 159.78 84.14" style="enable-background:new 0 0 159.78 84.14;" xml:space="preserve">
<style type="text/css">
	.st0{font-family:'Avenir-Roman';}
	.st1{font-size:27.2353px;}
	.st2{fill:none;stroke:url(#SVGID_1_);stroke-linecap:round;stroke-miterlimit:10;}
</style>
<text transform="matrix(0.9984 0 0 1 0.4842 73.2979)" class="st0 st1">beat stream</text>
<linearGradient id="SVGID_1_" gradientUnits="userSpaceOnUse" x1="0" y1="24.4648" x2="159.7783" y2="24.4648">
	<stop  offset="0.2483" style="stop-color:#10535A"/>
	<stop  offset="1" style="stop-color:#AAD8DA"/>
</linearGradient>
<path class="st2" d="M0.5,47.54c22.94,1.91,19.1-23.29,21.31-42.67c0.69-6.07,7.73-5.69,8.18,0.4c0.75,10.25,1.52,21.14,2.37,30.57
	c1.6,17.7,9.11,15.15,9.95-0.01c0.59-10.61,0.45-16.03,0.88-18.97c0.73-5,6.61-4.55,7.12-0.62c0.59,4.58,0.54,2.38,1.1,19.6
	c0.55,16.82,11.25,16,11.11,0c-0.07-7.87-0.04-21.17-0.14-26.33c-0.11-5.91,7.79-5.84,8.1-0.82c0.4,6.56,0.55,8.33,0.96,27.16
	c0.37,16.74,10.08,16.13,9.61,0c-0.41-14.1-0.18-5.49-0.27-10.53c-0.14-7.01,7-7.83,7.41-0.14c0.19,3.57,0.16,4.49,0.41,10.66
	c0.69,17.09,14.37,15.47,14.16,0c-0.05-3.45,0.42-9.62,1.1-15.02c1.28-10.22,8.4-11.24,9.56-0.13c0.51,4.85,0.67,10.63,0.76,15.14
	c0.34,16.05,12.41,13.96,14.24,7.61c1.98-6.88,8.9-5.47,11.01,0.37c2.18,6.05,13.61,5.95,19.86,0.94"/>
</svg>
