<?xml version="1.0" encoding="utf-8"?>
<!-- Generator: Adobe Illustrator 28.1.0, SVG Export Plug-In . SVG Version: 6.00 Build 0)  -->
<svg version="1.1" id="Layer_1" xmlns="http://www.w3.org/2000/svg" xmlns:xlink="http://www.w3.org/1999/xlink" x="0px" y="0px"
	 viewBox="0 0 260 80" style="enable-background:new 0 0 260 80;" xml:space="preserve">
<style type="text/css">
	.st0{fill:#F5A95D;}
	.st1{font-family:'Avenir-Roman';}
	.st2{font-size:32.5446px;}
	.st3{fill:none;stroke:url(#SVGID_1_);stroke-width:4;stroke-linecap:round;stroke-miterlimit:10;}
</style>
<text transform="matrix(0.9984 0 0 1 50 79.5889)" class="st0 st1 st2">beat stream</text>
<linearGradient id="SVGID_1_" gradientUnits="userSpaceOnUse" x1="51.6747" y1="27.1753" x2="222.5341" y2="27.1753">
	<stop  offset="0.2483" style="stop-color:#0E525A"/>
	<stop  offset="1" style="stop-color:#A9D8DA"/>
</linearGradient>
<path class="st3" d="M53.67,51.42c24.11,2.01,20.07-24.48,22.39-44.85C76.8,0.2,84.2,0.6,84.67,7c0.79,10.77,1.6,22.21,2.49,32.13
	c1.68,18.6,9.58,15.92,10.46-0.01c0.62-11.15,0.47-16.84,0.92-19.94c0.76-5.25,6.95-4.78,7.48-0.65c0.62,4.81,0.56,2.5,1.15,20.59
	c0.58,17.68,11.82,16.81,11.68,0c-0.07-8.27-0.04-22.24-0.14-27.67c-0.12-6.21,8.19-6.14,8.51-0.87c0.42,6.89,0.58,8.75,1.01,28.54
	c0.38,17.59,10.59,16.95,10.09,0c-0.43-14.82-0.18-5.77-0.29-11.06c-0.14-7.37,7.35-8.23,7.79-0.14c0.2,3.75,0.17,4.72,0.43,11.21
	c0.73,17.96,15.1,16.26,14.88,0c-0.05-3.63,0.44-10.11,1.15-15.78c1.34-10.74,8.82-11.81,10.05-0.13c0.54,5.1,0.7,11.17,0.8,15.91
	c0.36,16.86,13.04,14.67,14.96,8c2.08-7.23,9.36-5.75,11.57,0.39c2.29,6.36,14.31,6.25,20.87,0.99"/>
</svg>
