<?xml version="1.0" encoding="utf-8"?>
<!-- Generator: Adobe Illustrator 28.1.0, SVG Export Plug-In . SVG Version: 6.00 Build 0)  -->
<svg version="1.1" id="Layer_1" xmlns="http://www.w3.org/2000/svg" xmlns:xlink="http://www.w3.org/1999/xlink" x="0px" y="0px"
	 viewBox="0 0 258.2 135.69" style="enable-background:new 0 0 258.2 135.69;" xml:space="preserve">
<style type="text/css">
	.st0{font-family:'Avenir-Roman';}
	.st1{font-size:43.5347px;}
	.st2{fill:none;stroke:url(#SVGID_1_);stroke-width:4;stroke-linecap:round;stroke-miterlimit:10;}
</style>
<text transform="matrix(1 0 0 1 1.9749 118.3655)" class="st0 st1">beat stream</text>
<linearGradient id="SVGID_1_" gradientUnits="userSpaceOnUse" x1="0" y1="40.3069" x2="258.2019" y2="40.3069">
	<stop  offset="0.2483" style="stop-color:#10535A"/>
	<stop  offset="1" style="stop-color:#AAD8DA"/>
</linearGradient>
<path class="st2" d="M2,77.19c36.73,3.05,30.58-37.23,34.12-68.21c1.11-9.7,12.38-9.1,13.1,0.64C50.42,26,51.64,43.4,53.01,58.49
	c2.56,28.3,14.59,24.22,15.93-0.02c0.94-16.97,0.72-25.62,1.41-30.33c1.16-7.99,10.58-7.27,11.39-0.99
	c0.95,7.32,0.86,3.8,1.76,31.32c0.88,26.89,18.01,25.57,17.79,0c-0.11-12.59-1.29-33.9-0.22-42.09
	c1.57-11.98,11.36-11.54,12.96-1.32c1.63,10.38,0.88,13.31,1.54,43.41c0.59,26.75,16.22,26.31,15.38,0
	c-0.03-0.94-0.23-9.72-0.39-17.77c-0.22-11.2,11.15-11.57,11.81,0.73c0.31,5.71,0.26,7.18,0.66,17.05
	c1.11,27.31,23.01,24.73,22.67,0c-0.08-5.51,0.68-15.37,1.76-24c2.04-16.33,13.44-17.96,15.31-0.2c0.82,7.76,1.07,16.99,1.22,24.21
	c0.55,25.65,19.87,22.32,22.8,12.16c3.17-10.99,14.26-8.75,17.62,0.59c3.49,9.68,21.79,9.5,31.79,1.51"/>
</svg>
